<mxfile host="65bd71144e">
    <diagram id="6aBOskwQsQeoWCjWC5uv" name="Page-1">
        <mxGraphModel dx="916" dy="433" grid="0" gridSize="14" guides="1" tooltips="1" connect="1" arrows="1" fold="1" page="0" pageScale="1" pageWidth="1169" pageHeight="1654" math="0" shadow="0">
            <root>
                <mxCell id="0"/>
                <mxCell id="1" parent="0"/>
                <mxCell id="17" value="" style="rounded=0;whiteSpace=wrap;html=1;fontSize=14;strokeColor=default;strokeWidth=1;" parent="1" vertex="1">
                    <mxGeometry x="182" y="576.75" width="120" height="136" as="geometry"/>
                </mxCell>
                <mxCell id="18" value="&lt;span style=&quot;font-size: 14px;&quot;&gt;&lt;b&gt;Kunde&lt;/b&gt;&lt;/span&gt;" style="text;strokeColor=none;align=center;fillColor=none;html=1;verticalAlign=middle;whiteSpace=wrap;rounded=0;strokeWidth=1;" parent="1" vertex="1">
                    <mxGeometry x="182" y="576.75" width="120" height="25" as="geometry"/>
                </mxCell>
                <mxCell id="19" style="edgeStyle=none;html=1;exitX=0;exitY=0;exitDx=0;exitDy=0;entryX=1;entryY=0;entryDx=0;entryDy=0;endArrow=none;endFill=0;" parent="1" edge="1">
                    <mxGeometry relative="1" as="geometry">
                        <mxPoint x="182" y="601.75" as="sourcePoint"/>
                        <mxPoint x="302" y="601.75" as="targetPoint"/>
                    </mxGeometry>
                </mxCell>
                <mxCell id="20" value="&lt;span style=&quot;font-size: 14px;&quot;&gt;TelefonNr&lt;/span&gt;" style="text;strokeColor=none;align=center;fillColor=none;html=1;verticalAlign=middle;whiteSpace=wrap;rounded=0;strokeWidth=1;fontStyle=0" parent="1" vertex="1">
                    <mxGeometry x="182" y="621.75" width="120" height="20" as="geometry"/>
                </mxCell>
                <mxCell id="21" value="&lt;span style=&quot;font-size: 14px;&quot;&gt;Navn&lt;/span&gt;" style="text;strokeColor=none;align=center;fillColor=none;html=1;verticalAlign=middle;whiteSpace=wrap;rounded=0;strokeWidth=1;fontStyle=0" parent="1" vertex="1">
                    <mxGeometry x="182" y="641.75" width="120" height="20" as="geometry"/>
                </mxCell>
                <mxCell id="22" value="&lt;span style=&quot;font-size: 14px;&quot;&gt;Adresse&lt;/span&gt;" style="text;strokeColor=none;align=center;fillColor=none;html=1;verticalAlign=middle;whiteSpace=wrap;rounded=0;strokeWidth=1;fontStyle=0" parent="1" vertex="1">
                    <mxGeometry x="182" y="661.75" width="120" height="20" as="geometry"/>
                </mxCell>
                <mxCell id="25" value="&lt;span style=&quot;font-size: 14px;&quot;&gt;&lt;u&gt;KundeNr&lt;/u&gt;&lt;/span&gt;" style="text;strokeColor=none;align=center;fillColor=none;html=1;verticalAlign=middle;whiteSpace=wrap;rounded=0;strokeWidth=1;labelPosition=center;verticalLabelPosition=middle;" parent="1" vertex="1">
                    <mxGeometry x="182" y="601.75" width="120" height="20" as="geometry"/>
                </mxCell>
                <mxCell id="27" value="" style="rounded=0;whiteSpace=wrap;html=1;fontSize=14;strokeColor=default;strokeWidth=1;" parent="1" vertex="1">
                    <mxGeometry x="406" y="911.13" width="120" height="97" as="geometry"/>
                </mxCell>
                <mxCell id="28" value="&lt;span style=&quot;font-size: 14px;&quot;&gt;&lt;b&gt;Teatersal&lt;/b&gt;&lt;/span&gt;" style="text;strokeColor=none;align=center;fillColor=none;html=1;verticalAlign=middle;whiteSpace=wrap;rounded=0;strokeWidth=1;" parent="1" vertex="1">
                    <mxGeometry x="406" y="911.13" width="120" height="25" as="geometry"/>
                </mxCell>
                <mxCell id="29" style="edgeStyle=none;html=1;exitX=0;exitY=0;exitDx=0;exitDy=0;entryX=1;entryY=0;entryDx=0;entryDy=0;endArrow=none;endFill=0;" parent="1" edge="1">
                    <mxGeometry relative="1" as="geometry">
                        <mxPoint x="406" y="936.13" as="sourcePoint"/>
                        <mxPoint x="526" y="936.13" as="targetPoint"/>
                    </mxGeometry>
                </mxCell>
                <mxCell id="30" value="&lt;span style=&quot;font-size: 14px;&quot;&gt;Navn&lt;/span&gt;" style="text;strokeColor=none;align=center;fillColor=none;html=1;verticalAlign=middle;whiteSpace=wrap;rounded=0;strokeWidth=1;fontStyle=0" parent="1" vertex="1">
                    <mxGeometry x="406" y="956.13" width="120" height="20" as="geometry"/>
                </mxCell>
                <mxCell id="31" value="&lt;span style=&quot;font-size: 14px;&quot;&gt;Kapasitet&lt;/span&gt;" style="text;strokeColor=none;align=center;fillColor=none;html=1;verticalAlign=middle;whiteSpace=wrap;rounded=0;strokeWidth=1;fontStyle=0" parent="1" vertex="1">
                    <mxGeometry x="406" y="976.13" width="120" height="20" as="geometry"/>
                </mxCell>
                <mxCell id="35" value="&lt;span style=&quot;font-size: 14px;&quot;&gt;&lt;u&gt;SalID&lt;/u&gt;&lt;/span&gt;" style="text;strokeColor=none;align=center;fillColor=none;html=1;verticalAlign=middle;whiteSpace=wrap;rounded=0;strokeWidth=1;labelPosition=center;verticalLabelPosition=middle;" parent="1" vertex="1">
                    <mxGeometry x="406" y="936.13" width="120" height="20" as="geometry"/>
                </mxCell>
                <mxCell id="45" value="" style="rounded=0;whiteSpace=wrap;html=1;fontSize=14;strokeColor=default;strokeWidth=1;" parent="1" vertex="1">
                    <mxGeometry x="672" y="915.63" width="120" height="88" as="geometry"/>
                </mxCell>
                <mxCell id="46" value="" style="rounded=0;whiteSpace=wrap;html=1;fontSize=14;strokeColor=default;strokeWidth=1;" parent="1" vertex="1">
                    <mxGeometry x="677" y="925.13" width="110" height="69" as="geometry"/>
                </mxCell>
                <mxCell id="47" value="&lt;span style=&quot;font-size: 14px;&quot;&gt;&lt;b&gt;Forestilling&lt;/b&gt;&lt;/span&gt;" style="text;strokeColor=none;align=center;fillColor=none;html=1;verticalAlign=middle;whiteSpace=wrap;rounded=0;strokeWidth=1;" parent="1" vertex="1">
                    <mxGeometry x="677" y="925.13" width="110" height="25" as="geometry"/>
                </mxCell>
                <mxCell id="50" style="edgeStyle=none;html=1;exitX=0;exitY=0;exitDx=0;exitDy=0;entryX=1;entryY=0;entryDx=0;entryDy=0;endArrow=none;endFill=0;" parent="1" edge="1">
                    <mxGeometry relative="1" as="geometry">
                        <mxPoint x="677" y="950.13" as="sourcePoint"/>
                        <mxPoint x="787" y="950.13" as="targetPoint"/>
                    </mxGeometry>
                </mxCell>
                <mxCell id="52" value="&lt;span style=&quot;font-size: 14px;&quot;&gt;Tidspunkt&lt;/span&gt;" style="text;strokeColor=none;align=center;fillColor=none;html=1;verticalAlign=middle;whiteSpace=wrap;rounded=0;strokeWidth=1;fontStyle=0" parent="1" vertex="1">
                    <mxGeometry x="677" y="950.13" width="110" height="20" as="geometry"/>
                </mxCell>
                <mxCell id="53" value="" style="rounded=0;whiteSpace=wrap;html=1;fontSize=14;strokeColor=default;strokeWidth=1;" parent="1" vertex="1">
                    <mxGeometry x="854" y="645.25" width="120" height="85" as="geometry"/>
                </mxCell>
                <mxCell id="54" value="&lt;span style=&quot;font-size: 14px;&quot;&gt;&lt;b&gt;Teaterstykke&lt;/b&gt;&lt;/span&gt;" style="text;strokeColor=none;align=center;fillColor=none;html=1;verticalAlign=middle;whiteSpace=wrap;rounded=0;strokeWidth=1;" parent="1" vertex="1">
                    <mxGeometry x="854" y="645.25" width="120" height="25" as="geometry"/>
                </mxCell>
                <mxCell id="55" style="edgeStyle=none;html=1;exitX=0;exitY=0;exitDx=0;exitDy=0;entryX=1;entryY=0;entryDx=0;entryDy=0;endArrow=none;endFill=0;" parent="1" edge="1">
                    <mxGeometry relative="1" as="geometry">
                        <mxPoint x="854" y="670.25" as="sourcePoint"/>
                        <mxPoint x="974" y="670.25" as="targetPoint"/>
                    </mxGeometry>
                </mxCell>
                <mxCell id="56" value="&lt;span style=&quot;font-size: 14px;&quot;&gt;Navn&lt;/span&gt;" style="text;strokeColor=none;align=center;fillColor=none;html=1;verticalAlign=middle;whiteSpace=wrap;rounded=0;strokeWidth=1;fontStyle=0" parent="1" vertex="1">
                    <mxGeometry x="854" y="690.25" width="120" height="20" as="geometry"/>
                </mxCell>
                <mxCell id="61" value="&lt;span style=&quot;font-size: 14px;&quot;&gt;StykkeID&lt;/span&gt;" style="text;strokeColor=none;align=center;fillColor=none;html=1;verticalAlign=middle;whiteSpace=wrap;rounded=0;strokeWidth=1;labelPosition=center;verticalLabelPosition=middle;fontStyle=4" parent="1" vertex="1">
                    <mxGeometry x="854" y="670.25" width="120" height="20" as="geometry"/>
                </mxCell>
                <mxCell id="62" value="" style="rounded=0;whiteSpace=wrap;html=1;fontSize=14;strokeColor=default;strokeWidth=1;" parent="1" vertex="1">
                    <mxGeometry x="406" y="254.75" width="120" height="69" as="geometry"/>
                </mxCell>
                <mxCell id="63" value="&lt;span style=&quot;font-size: 14px;&quot;&gt;&lt;b&gt;Billett&lt;/b&gt;&lt;/span&gt;" style="text;strokeColor=none;align=center;fillColor=none;html=1;verticalAlign=middle;whiteSpace=wrap;rounded=0;strokeWidth=1;" parent="1" vertex="1">
                    <mxGeometry x="406" y="256.75" width="120" height="25" as="geometry"/>
                </mxCell>
                <mxCell id="64" style="edgeStyle=none;html=1;exitX=0;exitY=0;exitDx=0;exitDy=0;entryX=1;entryY=0;entryDx=0;entryDy=0;endArrow=none;endFill=0;" parent="1" edge="1">
                    <mxGeometry relative="1" as="geometry">
                        <mxPoint x="406" y="281.75" as="sourcePoint"/>
                        <mxPoint x="526" y="281.75" as="targetPoint"/>
                    </mxGeometry>
                </mxCell>
                <mxCell id="70" value="&lt;span style=&quot;font-size: 14px;&quot;&gt;BillettID&lt;/span&gt;" style="text;strokeColor=none;align=center;fillColor=none;html=1;verticalAlign=middle;whiteSpace=wrap;rounded=0;strokeWidth=1;labelPosition=center;verticalLabelPosition=middle;fontStyle=4" parent="1" vertex="1">
                    <mxGeometry x="406" y="281.75" width="120" height="20" as="geometry"/>
                </mxCell>
                <mxCell id="84" value="" style="rounded=0;whiteSpace=wrap;html=1;fontSize=14;strokeColor=default;strokeWidth=1;" parent="1" vertex="1">
                    <mxGeometry x="406" y="581" width="120" height="115" as="geometry"/>
                </mxCell>
                <mxCell id="85" value="" style="rounded=0;whiteSpace=wrap;html=1;fontSize=14;strokeColor=default;strokeWidth=1;" parent="1" vertex="1">
                    <mxGeometry x="411" y="586" width="110" height="105" as="geometry"/>
                </mxCell>
                <mxCell id="86" value="&lt;span style=&quot;font-size: 14px;&quot;&gt;&lt;b&gt;Stol&lt;/b&gt;&lt;/span&gt;" style="text;strokeColor=none;align=center;fillColor=none;html=1;verticalAlign=middle;whiteSpace=wrap;rounded=0;strokeWidth=1;" parent="1" vertex="1">
                    <mxGeometry x="411" y="586" width="110" height="25" as="geometry"/>
                </mxCell>
                <mxCell id="87" value="&lt;span style=&quot;font-size: 14px;&quot;&gt;RadNr&lt;/span&gt;" style="text;strokeColor=none;align=center;fillColor=none;html=1;verticalAlign=middle;whiteSpace=wrap;rounded=0;strokeWidth=1;fontStyle=0" parent="1" vertex="1">
                    <mxGeometry x="411" y="631" width="110" height="20" as="geometry"/>
                </mxCell>
                <mxCell id="88" value="&lt;span style=&quot;font-size: 14px;&quot;&gt;Område&lt;/span&gt;" style="text;strokeColor=none;align=center;fillColor=none;html=1;verticalAlign=middle;whiteSpace=wrap;rounded=0;strokeWidth=1;fontStyle=0" parent="1" vertex="1">
                    <mxGeometry x="411" y="651" width="110" height="20" as="geometry"/>
                </mxCell>
                <mxCell id="89" style="edgeStyle=none;html=1;exitX=0;exitY=0;exitDx=0;exitDy=0;entryX=1;entryY=0;entryDx=0;entryDy=0;endArrow=none;endFill=0;" parent="1" edge="1">
                    <mxGeometry relative="1" as="geometry">
                        <mxPoint x="411" y="611" as="sourcePoint"/>
                        <mxPoint x="521" y="611" as="targetPoint"/>
                    </mxGeometry>
                </mxCell>
                <mxCell id="91" value="&lt;span style=&quot;font-size: 14px;&quot;&gt;StolNr&lt;/span&gt;" style="text;strokeColor=none;align=center;fillColor=none;html=1;verticalAlign=middle;whiteSpace=wrap;rounded=0;strokeWidth=1;fontStyle=0" parent="1" vertex="1">
                    <mxGeometry x="411" y="612" width="110" height="16.5" as="geometry"/>
                </mxCell>
                <mxCell id="129" value="" style="rounded=0;whiteSpace=wrap;html=1;fontSize=14;strokeColor=default;strokeWidth=1;glass=0;labelBorderColor=none;fillColor=none;" parent="1" vertex="1">
                    <mxGeometry x="1134" y="1162" width="120" height="75" as="geometry"/>
                </mxCell>
                <mxCell id="130" value="" style="rounded=0;whiteSpace=wrap;html=1;fontSize=14;strokeColor=default;strokeWidth=1;glass=0;labelBorderColor=none;fillColor=none;" parent="1" vertex="1">
                    <mxGeometry x="1139" y="1167" width="110" height="65" as="geometry"/>
                </mxCell>
                <mxCell id="131" value="&lt;b&gt;&lt;font style=&quot;font-size: 14px;&quot;&gt;Akt&lt;/font&gt;&lt;/b&gt;" style="text;strokeColor=none;align=center;fillColor=none;html=1;verticalAlign=middle;whiteSpace=wrap;rounded=0;strokeWidth=1;glass=0;labelBorderColor=none;" parent="1" vertex="1">
                    <mxGeometry x="1139" y="1167" width="110" height="25" as="geometry"/>
                </mxCell>
                <mxCell id="132" value="&lt;span style=&quot;border-bottom: 1px dashed black;&quot;&gt;&lt;font style=&quot;font-size: 14px;&quot;&gt;AktNr&lt;/font&gt;&lt;/span&gt;" style="text;align=center;html=1;verticalAlign=middle;whiteSpace=wrap;rounded=0;strokeWidth=1;glass=0;labelBorderColor=none;strokeColor=none;fillColor=none;labelBackgroundColor=none;fontStyle=0" parent="1" vertex="1">
                    <mxGeometry x="1139" y="1192" width="110" height="20" as="geometry"/>
                </mxCell>
                <mxCell id="133" value="&lt;span style=&quot;font-size: 14px;&quot;&gt;Navn&lt;/span&gt;" style="text;strokeColor=none;align=center;fillColor=none;html=1;verticalAlign=middle;whiteSpace=wrap;rounded=0;strokeWidth=1;glass=0;labelBorderColor=none;" parent="1" vertex="1">
                    <mxGeometry x="1139" y="1212" width="110" height="20" as="geometry"/>
                </mxCell>
                <mxCell id="134" style="edgeStyle=none;html=1;exitX=0;exitY=0;exitDx=0;exitDy=0;entryX=1;entryY=0;entryDx=0;entryDy=0;endArrow=none;endFill=0;" parent="1" source="132" target="132" edge="1">
                    <mxGeometry relative="1" as="geometry"/>
                </mxCell>
                <mxCell id="143" value="" style="rounded=0;whiteSpace=wrap;html=1;fontSize=14;strokeColor=default;strokeWidth=1;" parent="1" vertex="1">
                    <mxGeometry x="1134" y="856.2500000000001" width="120" height="161.75" as="geometry"/>
                </mxCell>
                <mxCell id="144" value="&lt;span style=&quot;font-size: 14px;&quot;&gt;&lt;b&gt;Ansatt&lt;/b&gt;&lt;/span&gt;" style="text;strokeColor=none;align=center;fillColor=none;html=1;verticalAlign=middle;whiteSpace=wrap;rounded=0;strokeWidth=1;" parent="1" vertex="1">
                    <mxGeometry x="1134" y="856.2500000000001" width="120" height="25" as="geometry"/>
                </mxCell>
                <mxCell id="145" style="edgeStyle=none;html=1;exitX=0;exitY=0;exitDx=0;exitDy=0;entryX=1;entryY=0;entryDx=0;entryDy=0;endArrow=none;endFill=0;" parent="1" edge="1">
                    <mxGeometry relative="1" as="geometry">
                        <mxPoint x="1134" y="881.2500000000001" as="sourcePoint"/>
                        <mxPoint x="1254" y="881.2500000000001" as="targetPoint"/>
                    </mxGeometry>
                </mxCell>
                <mxCell id="146" value="&lt;span style=&quot;font-size: 14px;&quot;&gt;Navn&lt;/span&gt;" style="text;strokeColor=none;align=center;fillColor=none;html=1;verticalAlign=middle;whiteSpace=wrap;rounded=0;strokeWidth=1;fontStyle=0" parent="1" vertex="1">
                    <mxGeometry x="1134" y="901.2500000000001" width="120" height="20" as="geometry"/>
                </mxCell>
                <mxCell id="147" value="&lt;span style=&quot;font-size: 14px;&quot;&gt;TelefonNr&lt;/span&gt;" style="text;strokeColor=none;align=center;fillColor=none;html=1;verticalAlign=middle;whiteSpace=wrap;rounded=0;strokeWidth=1;fontStyle=0" parent="1" vertex="1">
                    <mxGeometry x="1134" y="921.2500000000001" width="120" height="20" as="geometry"/>
                </mxCell>
                <mxCell id="148" value="&lt;span style=&quot;font-size: 14px;&quot;&gt;E-post&lt;/span&gt;" style="text;strokeColor=none;align=center;fillColor=none;html=1;verticalAlign=middle;whiteSpace=wrap;rounded=0;strokeWidth=1;fontStyle=0" parent="1" vertex="1">
                    <mxGeometry x="1134" y="941.2500000000001" width="120" height="20" as="geometry"/>
                </mxCell>
                <mxCell id="151" value="&lt;span style=&quot;font-size: 14px;&quot;&gt;&lt;u&gt;AnsattID&lt;/u&gt;&lt;/span&gt;" style="text;strokeColor=none;align=center;fillColor=none;html=1;verticalAlign=middle;whiteSpace=wrap;rounded=0;strokeWidth=1;labelPosition=center;verticalLabelPosition=middle;" parent="1" vertex="1">
                    <mxGeometry x="1134" y="881.2500000000001" width="120" height="20" as="geometry"/>
                </mxCell>
                <mxCell id="168" value="Jobbstatus" style="text;html=1;align=center;verticalAlign=middle;resizable=0;points=[];autosize=1;strokeColor=none;fillColor=none;fontColor=#ffffff;" parent="1" vertex="1">
                    <mxGeometry x="1152" y="961.2500000000001" width="84" height="28" as="geometry"/>
                </mxCell>
                <mxCell id="170" value="" style="rounded=0;whiteSpace=wrap;html=1;fontSize=14;strokeColor=default;strokeWidth=1;fontColor=#ffffff;" parent="1" vertex="1">
                    <mxGeometry x="1428" y="936.1300000000001" width="110" height="68.25" as="geometry"/>
                </mxCell>
                <mxCell id="171" value="&lt;span style=&quot;font-size: 14px;&quot;&gt;&lt;b&gt;Rolle&lt;/b&gt;&lt;/span&gt;" style="text;strokeColor=none;align=center;fillColor=none;html=1;verticalAlign=middle;whiteSpace=wrap;rounded=0;strokeWidth=1;fontColor=#ffffff;" parent="1" vertex="1">
                    <mxGeometry x="1428" y="936.1300000000001" width="110" height="25" as="geometry"/>
                </mxCell>
                <mxCell id="172" value="&lt;span style=&quot;font-size: 14px;&quot;&gt;&lt;u&gt;RolleID&lt;/u&gt;&lt;/span&gt;" style="text;strokeColor=none;align=center;fillColor=none;html=1;verticalAlign=middle;whiteSpace=wrap;rounded=0;strokeWidth=1;labelPosition=center;verticalLabelPosition=middle;fontColor=#ffffff;" parent="1" vertex="1">
                    <mxGeometry x="1428" y="961.1300000000001" width="110" height="20" as="geometry"/>
                </mxCell>
                <mxCell id="173" style="edgeStyle=none;html=1;exitX=0;exitY=0;exitDx=0;exitDy=0;entryX=1;entryY=0;entryDx=0;entryDy=0;endArrow=none;endFill=0;strokeColor=#FFFFFF;fontColor=#ffffff;" parent="1" source="172" target="172" edge="1">
                    <mxGeometry relative="1" as="geometry"/>
                </mxCell>
                <mxCell id="259" style="edgeStyle=none;html=1;exitX=0.5;exitY=1;exitDx=0;exitDy=0;entryX=0.5;entryY=1;entryDx=0;entryDy=0;" parent="1" source="252" target="256" edge="1">
                    <mxGeometry relative="1" as="geometry"/>
                </mxCell>
                <mxCell id="252" value="" style="rounded=0;whiteSpace=wrap;html=1;fontSize=14;strokeColor=default;strokeWidth=1;" parent="1" vertex="1">
                    <mxGeometry x="184" y="247.25" width="120" height="84" as="geometry"/>
                </mxCell>
                <mxCell id="253" value="&lt;b&gt;&lt;font style=&quot;font-size: 14px;&quot;&gt;Billettkjøp&lt;/font&gt;&lt;/b&gt;" style="text;strokeColor=none;align=center;fillColor=none;html=1;verticalAlign=middle;whiteSpace=wrap;rounded=0;strokeWidth=1;" parent="1" vertex="1">
                    <mxGeometry x="184" y="247.25" width="120" height="25" as="geometry"/>
                </mxCell>
                <mxCell id="254" style="edgeStyle=none;html=1;exitX=0;exitY=0;exitDx=0;exitDy=0;entryX=1;entryY=0;entryDx=0;entryDy=0;endArrow=none;endFill=0;" parent="1" edge="1">
                    <mxGeometry relative="1" as="geometry">
                        <mxPoint x="184" y="272.25" as="sourcePoint"/>
                        <mxPoint x="304" y="272.25" as="targetPoint"/>
                    </mxGeometry>
                </mxCell>
                <mxCell id="255" value="&lt;span style=&quot;font-size: 14px;&quot;&gt;Tidspunkt&lt;/span&gt;" style="text;strokeColor=none;align=center;fillColor=none;html=1;verticalAlign=middle;whiteSpace=wrap;rounded=0;strokeWidth=1;fontStyle=0" parent="1" vertex="1">
                    <mxGeometry x="184" y="292.25" width="120" height="20" as="geometry"/>
                </mxCell>
                <mxCell id="256" value="&lt;font style=&quot;font-size: 14px;&quot;&gt;&lt;br&gt;&lt;/font&gt;" style="text;strokeColor=none;align=center;fillColor=none;html=1;verticalAlign=middle;whiteSpace=wrap;rounded=0;strokeWidth=1;fontStyle=0" parent="1" vertex="1">
                    <mxGeometry x="184" y="312.25" width="120" height="20" as="geometry"/>
                </mxCell>
                <mxCell id="258" value="&lt;span style=&quot;border-bottom: 1px solid black&quot;&gt;&lt;font style=&quot;font-size: 14px;&quot;&gt;&lt;u&gt;ReferanseNr&lt;/u&gt;&lt;/font&gt;&lt;/span&gt;" style="text;strokeColor=none;align=center;fillColor=none;html=1;verticalAlign=middle;whiteSpace=wrap;rounded=0;strokeWidth=1;labelPosition=center;verticalLabelPosition=middle;" parent="1" vertex="1">
                    <mxGeometry x="184" y="272.25" width="120" height="20" as="geometry"/>
                </mxCell>
                <mxCell id="306" value="" style="rounded=0;whiteSpace=wrap;html=1;fontSize=14;strokeColor=default;strokeWidth=1;" parent="1" vertex="1">
                    <mxGeometry x="1405" y="530.2500000000001" width="120" height="65" as="geometry"/>
                </mxCell>
                <mxCell id="464" style="edgeStyle=none;html=1;" parent="1" edge="1">
                    <mxGeometry relative="1" as="geometry">
                        <mxPoint x="1567.363636363636" y="1064" as="targetPoint"/>
                        <mxPoint x="1567" y="1064" as="sourcePoint"/>
                    </mxGeometry>
                </mxCell>
                <mxCell id="307" value="&lt;span style=&quot;font-size: 14px;&quot;&gt;&lt;b&gt;Teater&lt;/b&gt;&lt;/span&gt;" style="text;strokeColor=none;align=center;fillColor=none;html=1;verticalAlign=middle;whiteSpace=wrap;rounded=0;strokeWidth=1;" parent="1" vertex="1">
                    <mxGeometry x="1405" y="530.2500000000001" width="120" height="25" as="geometry"/>
                </mxCell>
                <mxCell id="308" style="edgeStyle=none;html=1;exitX=0;exitY=0;exitDx=0;exitDy=0;entryX=1;entryY=0;entryDx=0;entryDy=0;endArrow=none;endFill=0;" parent="1" edge="1">
                    <mxGeometry relative="1" as="geometry">
                        <mxPoint x="1405" y="555.2500000000001" as="sourcePoint"/>
                        <mxPoint x="1525.0000000000002" y="555.2500000000001" as="targetPoint"/>
                    </mxGeometry>
                </mxCell>
                <mxCell id="309" value="&lt;span style=&quot;font-size: 14px;&quot;&gt;Navn&lt;/span&gt;" style="text;strokeColor=none;align=center;fillColor=none;html=1;verticalAlign=middle;whiteSpace=wrap;rounded=0;strokeWidth=1;fontStyle=0" parent="1" vertex="1">
                    <mxGeometry x="1405" y="575.2500000000001" width="120" height="20" as="geometry"/>
                </mxCell>
                <mxCell id="310" value="&lt;span style=&quot;font-size: 14px;&quot;&gt;&lt;u&gt;TeaterID&lt;/u&gt;&lt;/span&gt;" style="text;strokeColor=none;align=center;fillColor=none;html=1;verticalAlign=middle;whiteSpace=wrap;rounded=0;strokeWidth=1;labelPosition=center;verticalLabelPosition=middle;" parent="1" vertex="1">
                    <mxGeometry x="1405" y="560.7500000000001" width="120" height="14.5" as="geometry"/>
                </mxCell>
                <mxCell id="373" value="Rollenavn" style="text;html=1;align=center;verticalAlign=middle;resizable=0;points=[];autosize=1;strokeColor=none;fillColor=none;fontColor=#FFFFFF;" parent="1" vertex="1">
                    <mxGeometry x="1441" y="976.3800000000001" width="84" height="28" as="geometry"/>
                </mxCell>
                <mxCell id="380" value="" style="endArrow=none;dashed=1;html=1;dashPattern=1 3;strokeWidth=2;fontColor=#FFFFFF;exitX=0.75;exitY=1;exitDx=0;exitDy=0;entryX=0.75;entryY=1;entryDx=0;entryDy=0;" parent="1" source="132" target="132" edge="1">
                    <mxGeometry width="50" height="50" relative="1" as="geometry">
                        <mxPoint x="1172.5" y="1218" as="sourcePoint"/>
                        <mxPoint x="1214.5" y="1196" as="targetPoint"/>
                    </mxGeometry>
                </mxCell>
                <mxCell id="382" value="" style="endArrow=none;dashed=1;html=1;dashPattern=1 3;strokeWidth=2;fontColor=#FFFFFF;exitX=0.25;exitY=0;exitDx=0;exitDy=0;entryX=0.75;entryY=1;entryDx=0;entryDy=0;" parent="1" edge="1">
                    <mxGeometry width="50" height="50" relative="1" as="geometry">
                        <mxPoint x="707" y="970.13" as="sourcePoint"/>
                        <mxPoint x="762" y="970.13" as="targetPoint"/>
                    </mxGeometry>
                </mxCell>
                <mxCell id="383" value="" style="endArrow=none;dashed=1;html=1;dashPattern=1 3;strokeWidth=2;fontColor=#FFFFFF;exitX=0.25;exitY=0;exitDx=0;exitDy=0;entryX=0.75;entryY=1;entryDx=0;entryDy=0;" parent="1" edge="1">
                    <mxGeometry width="50" height="50" relative="1" as="geometry">
                        <mxPoint x="442.5" y="627.39" as="sourcePoint"/>
                        <mxPoint x="497.5" y="627.39" as="targetPoint"/>
                    </mxGeometry>
                </mxCell>
                <mxCell id="384" value="" style="endArrow=none;dashed=1;html=1;dashPattern=1 3;strokeWidth=2;fontColor=#FFFFFF;exitX=0.25;exitY=0;exitDx=0;exitDy=0;entryX=0.75;entryY=1;entryDx=0;entryDy=0;" parent="1" edge="1">
                    <mxGeometry width="50" height="50" relative="1" as="geometry">
                        <mxPoint x="440" y="648.75" as="sourcePoint"/>
                        <mxPoint x="495" y="648.75" as="targetPoint"/>
                    </mxGeometry>
                </mxCell>
                <mxCell id="385" value="" style="endArrow=none;dashed=1;html=1;dashPattern=1 3;strokeWidth=2;fontColor=#FFFFFF;exitX=0.25;exitY=0;exitDx=0;exitDy=0;entryX=0.75;entryY=1;entryDx=0;entryDy=0;" parent="1" edge="1">
                    <mxGeometry width="50" height="50" relative="1" as="geometry">
                        <mxPoint x="442.5" y="671" as="sourcePoint"/>
                        <mxPoint x="497.5" y="671" as="targetPoint"/>
                    </mxGeometry>
                </mxCell>
                <mxCell id="402" value="" style="rounded=0;whiteSpace=wrap;html=1;fontSize=14;strokeColor=default;strokeWidth=1;labelBackgroundColor=none;labelBorderColor=none;fontColor=#FFFFFF;fillColor=none;" parent="1" vertex="1">
                    <mxGeometry x="560" y="495" width="120" height="79" as="geometry"/>
                </mxCell>
                <mxCell id="403" value="&lt;span style=&quot;font-size: 14px;&quot;&gt;&lt;b&gt;Kundegruppe&lt;/b&gt;&lt;/span&gt;" style="text;strokeColor=none;align=center;fillColor=none;html=1;verticalAlign=middle;whiteSpace=wrap;rounded=0;strokeWidth=1;labelBackgroundColor=none;labelBorderColor=none;fontColor=#FFFFFF;" parent="1" vertex="1">
                    <mxGeometry x="560" y="495" width="120" height="25" as="geometry"/>
                </mxCell>
                <mxCell id="404" style="edgeStyle=none;html=1;exitX=0;exitY=0;exitDx=0;exitDy=0;entryX=1;entryY=0;entryDx=0;entryDy=0;endArrow=none;endFill=0;fontColor=#FFFFFF;" parent="1" edge="1">
                    <mxGeometry relative="1" as="geometry">
                        <mxPoint x="560" y="520" as="sourcePoint"/>
                        <mxPoint x="680.0000000000002" y="520" as="targetPoint"/>
                    </mxGeometry>
                </mxCell>
                <mxCell id="418" value="" style="rounded=0;whiteSpace=wrap;html=1;fontSize=14;strokeColor=default;strokeWidth=1;shadow=0;labelBackgroundColor=none;labelBorderColor=none;fontColor=#FFFFFF;fillColor=#000000;" parent="1" vertex="1">
                    <mxGeometry x="1134" y="651" width="120" height="65" as="geometry"/>
                </mxCell>
                <mxCell id="419" value="&lt;span style=&quot;font-size: 14px;&quot;&gt;&lt;b&gt;Oppgave&lt;/b&gt;&lt;/span&gt;" style="text;strokeColor=none;align=center;fillColor=none;html=1;verticalAlign=middle;whiteSpace=wrap;rounded=0;strokeWidth=1;shadow=0;labelBackgroundColor=none;labelBorderColor=none;fontColor=#FFFFFF;" parent="1" vertex="1">
                    <mxGeometry x="1134" y="651" width="120" height="25" as="geometry"/>
                </mxCell>
                <mxCell id="420" style="edgeStyle=none;html=1;exitX=0;exitY=0;exitDx=0;exitDy=0;entryX=1;entryY=0;entryDx=0;entryDy=0;endArrow=none;endFill=0;fontColor=#FFFFFF;" parent="1" edge="1">
                    <mxGeometry relative="1" as="geometry">
                        <mxPoint x="1134" y="676" as="sourcePoint"/>
                        <mxPoint x="1254.0000000000002" y="676" as="targetPoint"/>
                    </mxGeometry>
                </mxCell>
                <mxCell id="421" value="&lt;span style=&quot;font-size: 14px;&quot;&gt;Beskrivelse&lt;/span&gt;" style="text;strokeColor=none;align=center;fillColor=none;html=1;verticalAlign=middle;whiteSpace=wrap;rounded=0;strokeWidth=1;fontStyle=0;shadow=0;labelBackgroundColor=none;labelBorderColor=none;fontColor=#FFFFFF;" parent="1" vertex="1">
                    <mxGeometry x="1134" y="696" width="120" height="20" as="geometry"/>
                </mxCell>
                <mxCell id="422" value="&lt;span style=&quot;font-size: 14px;&quot;&gt;&lt;u&gt;OppgaveID&lt;/u&gt;&lt;/span&gt;" style="text;strokeColor=none;align=center;fillColor=none;html=1;verticalAlign=middle;whiteSpace=wrap;rounded=0;strokeWidth=1;labelPosition=center;verticalLabelPosition=middle;shadow=0;labelBackgroundColor=none;labelBorderColor=none;fontColor=#FFFFFF;" parent="1" vertex="1">
                    <mxGeometry x="1134" y="676" width="120" height="20" as="geometry"/>
                </mxCell>
                <mxCell id="433" value="Stillingstittel" style="text;html=1;align=center;verticalAlign=middle;resizable=0;points=[];autosize=1;strokeColor=none;fillColor=none;fontColor=#FFFFFF;" parent="1" vertex="1">
                    <mxGeometry x="1145" y="989.2500000000001" width="98" height="28" as="geometry"/>
                </mxCell>
                <mxCell id="437" value="" style="rhombus;whiteSpace=wrap;html=1;fontSize=14;strokeColor=default;" parent="1" vertex="1">
                    <mxGeometry x="766.0000000000001" y="520" width="40" height="40" as="geometry"/>
                </mxCell>
                <mxCell id="438" value="&lt;b&gt;BillettTilStykke&lt;/b&gt;" style="text;strokeColor=none;align=center;fillColor=none;html=1;verticalAlign=middle;whiteSpace=wrap;rounded=0;fontSize=14;" parent="1" vertex="1">
                    <mxGeometry x="672" y="279" width="60" height="20" as="geometry"/>
                </mxCell>
                <mxCell id="440" value="" style="edgeStyle=segmentEdgeStyle;endArrow=none;html=1;curved=0;rounded=0;endSize=8;startSize=8;endFill=0;exitX=1.006;exitY=0.675;exitDx=0;exitDy=0;exitPerimeter=0;entryX=0;entryY=0.5;entryDx=0;entryDy=0;" parent="1" source="402" target="437" edge="1">
                    <mxGeometry width="50" height="50" relative="1" as="geometry">
                        <mxPoint x="726" y="539.87" as="sourcePoint"/>
                        <mxPoint x="770" y="539" as="targetPoint"/>
                        <Array as="points">
                            <mxPoint x="766" y="539"/>
                        </Array>
                    </mxGeometry>
                </mxCell>
                <mxCell id="441" value="" style="edgeStyle=segmentEdgeStyle;endArrow=none;html=1;curved=0;rounded=0;endSize=8;startSize=8;endFill=0;entryX=0.5;entryY=0;entryDx=0;entryDy=0;" parent="1" target="54" edge="1">
                    <mxGeometry width="50" height="50" relative="1" as="geometry">
                        <mxPoint x="806" y="541" as="sourcePoint"/>
                        <mxPoint x="846" y="581" as="targetPoint"/>
                        <Array as="points">
                            <mxPoint x="896" y="541"/>
                            <mxPoint x="896" y="645"/>
                        </Array>
                    </mxGeometry>
                </mxCell>
                <mxCell id="442" value="" style="edgeStyle=segmentEdgeStyle;endArrow=none;html=1;curved=0;rounded=0;endSize=8;startSize=8;endFill=0;exitX=0.5;exitY=1;exitDx=0;exitDy=0;entryX=0.5;entryY=0;entryDx=0;entryDy=0;" parent="1" source="62" target="84" edge="1">
                    <mxGeometry width="50" height="50" relative="1" as="geometry">
                        <mxPoint x="445.99" y="490.01" as="sourcePoint"/>
                        <mxPoint x="485.99" y="490.01" as="targetPoint"/>
                        <Array as="points"/>
                    </mxGeometry>
                </mxCell>
                <mxCell id="443" value="" style="edgeStyle=segmentEdgeStyle;endArrow=none;html=1;curved=0;rounded=0;endSize=8;startSize=8;endFill=0;exitX=1;exitY=0.5;exitDx=0;exitDy=0;" parent="1" source="70" edge="1">
                    <mxGeometry width="50" height="50" relative="1" as="geometry">
                        <mxPoint x="585" y="455" as="sourcePoint"/>
                        <mxPoint x="625" y="495" as="targetPoint"/>
                        <Array as="points">
                            <mxPoint x="625" y="292"/>
                        </Array>
                    </mxGeometry>
                </mxCell>
                <mxCell id="444" value="" style="rhombus;whiteSpace=wrap;html=1;fontSize=14;strokeColor=default;" parent="1" vertex="1">
                    <mxGeometry x="603.0000000000001" y="272" width="40" height="40" as="geometry"/>
                </mxCell>
                <mxCell id="445" value="&lt;b&gt;TypeBillett&lt;/b&gt;" style="text;strokeColor=none;align=left;fillColor=none;html=1;verticalAlign=middle;whiteSpace=wrap;rounded=0;fontSize=14;" parent="1" vertex="1">
                    <mxGeometry x="753" y="566" width="60" height="20" as="geometry"/>
                </mxCell>
                <mxCell id="446" value="" style="rhombus;whiteSpace=wrap;html=1;fontSize=14;strokeColor=default;" parent="1" vertex="1">
                    <mxGeometry x="446.0000000000001" y="427" width="40" height="40" as="geometry"/>
                </mxCell>
                <mxCell id="447" value="&lt;b&gt;Seteplass&lt;/b&gt;" style="text;strokeColor=none;align=left;fillColor=none;html=1;verticalAlign=middle;whiteSpace=wrap;rounded=0;fontSize=14;" parent="1" vertex="1">
                    <mxGeometry x="491" y="437" width="60" height="20" as="geometry"/>
                </mxCell>
                <mxCell id="448" value="" style="edgeStyle=segmentEdgeStyle;endArrow=none;html=1;curved=0;rounded=0;endSize=8;startSize=8;endFill=0;exitX=1;exitY=0.75;exitDx=0;exitDy=0;entryX=0;entryY=1;entryDx=0;entryDy=0;" parent="1" source="258" target="63" edge="1">
                    <mxGeometry width="50" height="50" relative="1" as="geometry">
                        <mxPoint x="336" y="282.06" as="sourcePoint"/>
                        <mxPoint x="376" y="282.06" as="targetPoint"/>
                        <Array as="points">
                            <mxPoint x="304" y="282"/>
                        </Array>
                    </mxGeometry>
                </mxCell>
                <mxCell id="449" value="" style="rhombus;whiteSpace=wrap;html=1;fontSize=14;strokeColor=default;" parent="1" vertex="1">
                    <mxGeometry x="332.0000000000001" y="259" width="40" height="40" as="geometry"/>
                </mxCell>
                <mxCell id="450" value="&lt;b&gt;BilletterIKjøp&lt;/b&gt;" style="text;strokeColor=none;align=center;fillColor=none;html=1;verticalAlign=middle;whiteSpace=wrap;rounded=0;fontSize=14;" parent="1" vertex="1">
                    <mxGeometry x="322" y="239" width="60" height="20" as="geometry"/>
                </mxCell>
                <mxCell id="451" value="" style="edgeStyle=segmentEdgeStyle;endArrow=none;html=1;curved=0;rounded=0;endSize=8;startSize=8;endFill=0;exitX=0.5;exitY=0;exitDx=0;exitDy=0;entryX=0.5;entryY=1;entryDx=0;entryDy=0;" parent="1" source="18" target="256" edge="1">
                    <mxGeometry width="50" height="50" relative="1" as="geometry">
                        <mxPoint x="280" y="476" as="sourcePoint"/>
                        <mxPoint x="320" y="476" as="targetPoint"/>
                        <Array as="points">
                            <mxPoint x="244" y="577"/>
                        </Array>
                    </mxGeometry>
                </mxCell>
                <mxCell id="452" value="" style="rhombus;whiteSpace=wrap;html=1;fontSize=14;strokeColor=default;" parent="1" vertex="1">
                    <mxGeometry x="224.0000000000001" y="437" width="40" height="40" as="geometry"/>
                </mxCell>
                <mxCell id="453" value="&lt;b&gt;KundeKjøp&lt;/b&gt;" style="text;strokeColor=none;align=right;fillColor=none;html=1;verticalAlign=middle;whiteSpace=wrap;rounded=0;fontSize=14;" parent="1" vertex="1">
                    <mxGeometry x="159" y="447" width="60" height="20" as="geometry"/>
                </mxCell>
                <mxCell id="456" value="" style="edgeStyle=segmentEdgeStyle;endArrow=none;html=1;curved=0;rounded=0;endSize=8;startSize=8;endFill=0;exitX=0.5;exitY=1;exitDx=0;exitDy=0;entryX=0.5;entryY=0;entryDx=0;entryDy=0;" parent="1" source="84" target="28" edge="1">
                    <mxGeometry width="50" height="50" relative="1" as="geometry">
                        <mxPoint x="446" y="784" as="sourcePoint"/>
                        <mxPoint x="486" y="784" as="targetPoint"/>
                        <Array as="points"/>
                    </mxGeometry>
                </mxCell>
                <mxCell id="462" value="" style="edgeStyle=segmentEdgeStyle;endArrow=none;html=1;curved=0;rounded=0;endSize=8;startSize=8;endFill=0;entryX=0;entryY=0.5;entryDx=0;entryDy=0;exitX=1;exitY=0.75;exitDx=0;exitDy=0;" parent="1" source="61" target="422" edge="1">
                    <mxGeometry width="50" height="50" relative="1" as="geometry">
                        <mxPoint x="994" y="686" as="sourcePoint"/>
                        <mxPoint x="908" y="742" as="targetPoint"/>
                        <Array as="points">
                            <mxPoint x="994" y="685"/>
                        </Array>
                    </mxGeometry>
                </mxCell>
                <mxCell id="463" value="" style="edgeStyle=segmentEdgeStyle;endArrow=none;html=1;curved=0;rounded=0;endSize=8;startSize=8;endFill=0;exitX=0.5;exitY=1;exitDx=0;exitDy=0;entryX=0.5;entryY=0;entryDx=0;entryDy=0;" parent="1" source="421" target="144" edge="1">
                    <mxGeometry width="50" height="50" relative="1" as="geometry">
                        <mxPoint x="1190" y="770" as="sourcePoint"/>
                        <mxPoint x="1190" y="810" as="targetPoint"/>
                        <Array as="points">
                            <mxPoint x="1194" y="784"/>
                            <mxPoint x="1194" y="784"/>
                        </Array>
                    </mxGeometry>
                </mxCell>
                <mxCell id="467" value="" style="edgeStyle=segmentEdgeStyle;endArrow=none;html=1;curved=0;rounded=0;endSize=8;startSize=8;endFill=0;exitX=1;exitY=0.5;exitDx=0;exitDy=0;entryX=0.529;entryY=1.092;entryDx=0;entryDy=0;entryPerimeter=0;" parent="1" source="129" target="373" edge="1">
                    <mxGeometry width="50" height="50" relative="1" as="geometry">
                        <mxPoint x="1444.96" y="1011.25" as="sourcePoint"/>
                        <mxPoint x="1485" y="1008" as="targetPoint"/>
                        <Array as="points">
                            <mxPoint x="1485" y="1199"/>
                        </Array>
                    </mxGeometry>
                </mxCell>
                <mxCell id="468" value="" style="edgeStyle=segmentEdgeStyle;endArrow=none;html=1;curved=0;rounded=0;endSize=8;startSize=8;endFill=0;entryX=0;entryY=0.5;entryDx=0;entryDy=0;" parent="1" target="172" edge="1">
                    <mxGeometry width="50" height="50" relative="1" as="geometry">
                        <mxPoint x="1254" y="966" as="sourcePoint"/>
                        <mxPoint x="1370" y="938" as="targetPoint"/>
                        <Array as="points">
                            <mxPoint x="1254" y="971"/>
                        </Array>
                    </mxGeometry>
                </mxCell>
                <mxCell id="469" value="" style="edgeStyle=segmentEdgeStyle;endArrow=none;html=1;curved=0;rounded=0;endSize=8;startSize=8;endFill=0;entryX=0.75;entryY=0;entryDx=0;entryDy=0;exitX=0;exitY=0.25;exitDx=0;exitDy=0;" parent="1" target="54" edge="1">
                    <mxGeometry width="50" height="50" relative="1" as="geometry">
                        <mxPoint x="1109" y="565" as="sourcePoint"/>
                        <mxPoint x="952" y="614" as="targetPoint"/>
                        <Array as="points">
                            <mxPoint x="952" y="560"/>
                            <mxPoint x="952" y="645"/>
                        </Array>
                    </mxGeometry>
                </mxCell>
                <mxCell id="470" value="" style="edgeStyle=segmentEdgeStyle;endArrow=none;html=1;curved=0;rounded=0;endSize=8;startSize=8;endFill=0;exitX=1;exitY=0.25;exitDx=0;exitDy=0;entryX=0;entryY=0;entryDx=0;entryDy=0;startArrow=none;" parent="1" source="507" target="310" edge="1">
                    <mxGeometry width="50" height="50" relative="1" as="geometry">
                        <mxPoint x="1302" y="560" as="sourcePoint"/>
                        <mxPoint x="1342" y="560" as="targetPoint"/>
                        <Array as="points">
                            <mxPoint x="1331" y="568"/>
                            <mxPoint x="1405" y="568"/>
                        </Array>
                    </mxGeometry>
                </mxCell>
                <mxCell id="471" value="" style="edgeStyle=segmentEdgeStyle;endArrow=none;html=1;curved=0;rounded=0;endSize=8;startSize=8;endFill=0;exitX=1;exitY=0;exitDx=0;exitDy=0;entryX=0.5;entryY=1;entryDx=0;entryDy=0;" parent="1" source="151" target="309" edge="1">
                    <mxGeometry width="50" height="50" relative="1" as="geometry">
                        <mxPoint x="1330" y="880" as="sourcePoint"/>
                        <mxPoint x="1370.0000000000002" y="840" as="targetPoint"/>
                        <Array as="points">
                            <mxPoint x="1254" y="868"/>
                            <mxPoint x="1465" y="868"/>
                        </Array>
                    </mxGeometry>
                </mxCell>
                <mxCell id="472" value="" style="edgeStyle=segmentEdgeStyle;endArrow=none;html=1;curved=0;rounded=0;endSize=8;startSize=8;endFill=0;exitX=1;exitY=0.75;exitDx=0;exitDy=0;entryX=-0.01;entryY=0.409;entryDx=0;entryDy=0;entryPerimeter=0;" parent="1" source="35" target="45" edge="1">
                    <mxGeometry width="50" height="50" relative="1" as="geometry">
                        <mxPoint x="588" y="952" as="sourcePoint"/>
                        <mxPoint x="628" y="952" as="targetPoint"/>
                        <Array as="points">
                            <mxPoint x="628" y="951"/>
                        </Array>
                    </mxGeometry>
                </mxCell>
                <mxCell id="473" value="" style="edgeStyle=segmentEdgeStyle;endArrow=none;html=1;curved=0;rounded=0;endSize=8;startSize=8;endFill=0;exitX=0;exitY=1;exitDx=0;exitDy=0;entryX=0.5;entryY=0;entryDx=0;entryDy=0;" parent="1" source="61" target="45" edge="1">
                    <mxGeometry width="50" height="50" relative="1" as="geometry">
                        <mxPoint x="838" y="686" as="sourcePoint"/>
                        <mxPoint x="798" y="726" as="targetPoint"/>
                        <Array as="points">
                            <mxPoint x="854" y="686"/>
                            <mxPoint x="732" y="686"/>
                        </Array>
                    </mxGeometry>
                </mxCell>
                <mxCell id="474" value="" style="edgeStyle=segmentEdgeStyle;endArrow=none;html=1;curved=0;rounded=0;endSize=8;startSize=8;endFill=0;exitX=0;exitY=0.5;exitDx=0;exitDy=0;entryX=0.5;entryY=1;entryDx=0;entryDy=0;" parent="1" source="129" target="53" edge="1">
                    <mxGeometry width="50" height="50" relative="1" as="geometry">
                        <mxPoint x="1118" y="1202" as="sourcePoint"/>
                        <mxPoint x="1078.0000000000002" y="1162" as="targetPoint"/>
                        <Array as="points">
                            <mxPoint x="1134" y="1202"/>
                            <mxPoint x="914" y="1202"/>
                        </Array>
                    </mxGeometry>
                </mxCell>
                <mxCell id="475" value="" style="rhombus;whiteSpace=wrap;html=1;fontSize=14;strokeColor=default;" parent="1" vertex="1">
                    <mxGeometry x="447.0000000000001" y="787" width="40" height="40" as="geometry"/>
                </mxCell>
                <mxCell id="476" value="&lt;div style=&quot;text-align: center;&quot;&gt;&lt;span style=&quot;background-color: initial;&quot;&gt;&lt;b&gt;StolISal&lt;/b&gt;&lt;/span&gt;&lt;/div&gt;" style="text;strokeColor=none;align=right;fillColor=none;html=1;verticalAlign=middle;whiteSpace=wrap;rounded=0;fontSize=14;" parent="1" vertex="1">
                    <mxGeometry x="382" y="797" width="60" height="20" as="geometry"/>
                </mxCell>
                <mxCell id="477" value="" style="rhombus;whiteSpace=wrap;html=1;fontSize=14;strokeColor=default;" parent="1" vertex="1">
                    <mxGeometry x="452" y="792" width="30" height="30" as="geometry"/>
                </mxCell>
                <mxCell id="478" value="" style="edgeStyle=segmentEdgeStyle;endArrow=none;html=1;curved=0;rounded=0;endSize=8;startSize=8;endFill=0;" parent="1" edge="1">
                    <mxGeometry width="50" height="50" relative="1" as="geometry">
                        <mxPoint x="1624" y="1344" as="sourcePoint"/>
                        <mxPoint x="462.0000000000002" y="1008" as="targetPoint"/>
                        <Array as="points">
                            <mxPoint x="502" y="1344"/>
                            <mxPoint x="462" y="1344"/>
                        </Array>
                    </mxGeometry>
                </mxCell>
                <mxCell id="479" value="" style="edgeStyle=segmentEdgeStyle;endArrow=none;html=1;curved=0;rounded=0;endSize=8;startSize=8;endFill=0;exitX=1;exitY=0;exitDx=0;exitDy=0;" parent="1" source="310" edge="1">
                    <mxGeometry width="50" height="50" relative="1" as="geometry">
                        <mxPoint x="1624" y="574" as="sourcePoint"/>
                        <mxPoint x="1624" y="1344" as="targetPoint"/>
                        <Array as="points">
                            <mxPoint x="1624" y="561"/>
                            <mxPoint x="1624" y="1342"/>
                        </Array>
                    </mxGeometry>
                </mxCell>
                <mxCell id="480" value="" style="rhombus;whiteSpace=wrap;html=1;fontSize=14;strokeColor=default;" parent="1" vertex="1">
                    <mxGeometry x="1035" y="1312" width="64" height="62" as="geometry"/>
                </mxCell>
                <mxCell id="481" value="&lt;b&gt;SalITeater&lt;/b&gt;" style="text;strokeColor=none;align=center;fillColor=none;html=1;verticalAlign=middle;whiteSpace=wrap;rounded=0;fontSize=14;" parent="1" vertex="1">
                    <mxGeometry x="1036" y="1374" width="63" height="26" as="geometry"/>
                </mxCell>
                <mxCell id="482" value="" style="rhombus;whiteSpace=wrap;html=1;fontSize=14;strokeColor=default;" parent="1" vertex="1">
                    <mxGeometry x="570.0000000000001" y="931.13" width="40" height="40" as="geometry"/>
                </mxCell>
                <mxCell id="483" value="&lt;b&gt;ForestillingI&lt;/b&gt;" style="text;strokeColor=none;align=center;fillColor=none;html=1;verticalAlign=middle;whiteSpace=wrap;rounded=0;fontSize=14;" parent="1" vertex="1">
                    <mxGeometry x="560" y="911.13" width="60" height="20" as="geometry"/>
                </mxCell>
                <mxCell id="487" value="" style="rhombus;whiteSpace=wrap;html=1;fontSize=14;strokeColor=default;" parent="1" vertex="1">
                    <mxGeometry x="713.0000000000001" y="668" width="40" height="40" as="geometry"/>
                </mxCell>
                <mxCell id="488" value="&lt;div style=&quot;text-align: center;&quot;&gt;&lt;span style=&quot;background-color: initial;&quot;&gt;&lt;b&gt;TeaterForestilling&lt;/b&gt;&lt;/span&gt;&lt;/div&gt;" style="text;strokeColor=none;align=right;fillColor=none;html=1;verticalAlign=middle;whiteSpace=wrap;rounded=0;fontSize=14;" parent="1" vertex="1">
                    <mxGeometry x="648" y="678" width="60" height="20" as="geometry"/>
                </mxCell>
                <mxCell id="489" value="" style="rhombus;whiteSpace=wrap;html=1;fontSize=14;strokeColor=default;" parent="1" vertex="1">
                    <mxGeometry x="718" y="673" width="30" height="30" as="geometry"/>
                </mxCell>
                <mxCell id="490" value="" style="rhombus;whiteSpace=wrap;html=1;fontSize=14;strokeColor=default;" parent="1" vertex="1">
                    <mxGeometry x="894.0000000000001" y="1177" width="40" height="40" as="geometry"/>
                </mxCell>
                <mxCell id="491" value="&lt;b&gt;AktIStykke&lt;/b&gt;" style="text;strokeColor=none;align=center;fillColor=none;html=1;verticalAlign=middle;whiteSpace=wrap;rounded=0;fontSize=14;" parent="1" vertex="1">
                    <mxGeometry x="884" y="1217" width="60" height="20" as="geometry"/>
                </mxCell>
                <mxCell id="492" value="" style="rhombus;whiteSpace=wrap;html=1;fontSize=14;strokeColor=default;" parent="1" vertex="1">
                    <mxGeometry x="899" y="1182" width="30" height="30" as="geometry"/>
                </mxCell>
                <mxCell id="493" value="" style="rhombus;whiteSpace=wrap;html=1;fontSize=14;strokeColor=default;" parent="1" vertex="1">
                    <mxGeometry x="1326" y="950" width="40" height="40" as="geometry"/>
                </mxCell>
                <mxCell id="494" value="&lt;b&gt;Skuespiller&lt;/b&gt;" style="text;strokeColor=none;align=center;fillColor=none;html=1;verticalAlign=middle;whiteSpace=wrap;rounded=0;fontSize=14;" parent="1" vertex="1">
                    <mxGeometry x="1316" y="990" width="60" height="20" as="geometry"/>
                </mxCell>
                <mxCell id="495" value="" style="rhombus;whiteSpace=wrap;html=1;fontSize=14;strokeColor=default;" parent="1" vertex="1">
                    <mxGeometry x="1463" y="1177" width="40" height="40" as="geometry"/>
                </mxCell>
                <mxCell id="496" value="&lt;b&gt;DeltarIAkt&lt;/b&gt;" style="text;strokeColor=none;align=center;fillColor=none;html=1;verticalAlign=middle;whiteSpace=wrap;rounded=0;fontSize=14;" parent="1" vertex="1">
                    <mxGeometry x="1453" y="1217" width="60" height="20" as="geometry"/>
                </mxCell>
                <mxCell id="497" value="" style="rhombus;whiteSpace=wrap;html=1;fontSize=14;strokeColor=default;" parent="1" vertex="1">
                    <mxGeometry x="1174" y="763" width="40" height="40" as="geometry"/>
                </mxCell>
                <mxCell id="498" value="&lt;b&gt;DelegerteOppgaver&lt;/b&gt;" style="text;strokeColor=none;align=left;fillColor=none;html=1;verticalAlign=middle;whiteSpace=wrap;rounded=0;fontSize=14;" parent="1" vertex="1">
                    <mxGeometry x="1219" y="773" width="60" height="20" as="geometry"/>
                </mxCell>
                <mxCell id="499" value="" style="rhombus;whiteSpace=wrap;html=1;fontSize=14;strokeColor=default;" parent="1" vertex="1">
                    <mxGeometry x="1028" y="668" width="40" height="40" as="geometry"/>
                </mxCell>
                <mxCell id="500" value="&lt;b&gt;TeaterOppgaver&lt;/b&gt;" style="text;strokeColor=none;align=center;fillColor=none;html=1;verticalAlign=middle;whiteSpace=wrap;rounded=0;fontSize=14;" parent="1" vertex="1">
                    <mxGeometry x="1018" y="648" width="60" height="20" as="geometry"/>
                </mxCell>
                <mxCell id="503" value="" style="rhombus;whiteSpace=wrap;html=1;fontSize=14;strokeColor=default;" parent="1" vertex="1">
                    <mxGeometry x="1445" y="849" width="40" height="40" as="geometry"/>
                </mxCell>
                <mxCell id="504" value="&lt;b&gt;Direktør&lt;/b&gt;" style="text;strokeColor=none;align=left;fillColor=none;html=1;verticalAlign=middle;whiteSpace=wrap;rounded=0;fontSize=14;" parent="1" vertex="1">
                    <mxGeometry x="1490" y="859" width="60" height="20" as="geometry"/>
                </mxCell>
                <mxCell id="508" value="&lt;b&gt;Teatersesong&lt;/b&gt;" style="text;strokeColor=none;align=center;fillColor=none;html=1;verticalAlign=middle;whiteSpace=wrap;rounded=0;fontSize=14;" parent="1" vertex="1">
                    <mxGeometry x="1288" y="528" width="60" height="20" as="geometry"/>
                </mxCell>
                <mxCell id="509" value="" style="rhombus;whiteSpace=wrap;html=1;fontSize=14;strokeColor=default;" parent="1" vertex="1">
                    <mxGeometry x="930.0000000000001" y="541" width="40" height="40" as="geometry"/>
                </mxCell>
                <mxCell id="510" value="&lt;b&gt;StykkerISesong&lt;/b&gt;" style="text;strokeColor=none;align=center;fillColor=none;html=1;verticalAlign=middle;whiteSpace=wrap;rounded=0;fontSize=14;" parent="1" vertex="1">
                    <mxGeometry x="920" y="521" width="60" height="20" as="geometry"/>
                </mxCell>
                <mxCell id="511" value="&lt;font color=&quot;#ffffff&quot;&gt;Pris&lt;/font&gt;" style="ellipse;whiteSpace=wrap;html=1;fontSize=14;fontColor=#000000;aspect=fixed;" parent="1" vertex="1">
                    <mxGeometry x="816" y="493" width="45" height="27" as="geometry"/>
                </mxCell>
                <mxCell id="512" value="" style="edgeStyle=none;orthogonalLoop=1;jettySize=auto;html=1;fontSize=14;endArrow=none;endFill=0;fontColor=#000000;strokeColor=#FFFFFF;exitX=1;exitY=0;exitDx=0;exitDy=0;entryX=0;entryY=1;entryDx=0;entryDy=0;fillColor=#eeeeee;" parent="1" source="437" target="511" edge="1">
                    <mxGeometry width="80" relative="1" as="geometry">
                        <mxPoint x="812" y="532" as="sourcePoint"/>
                        <mxPoint x="862" y="557" as="targetPoint"/>
                        <Array as="points"/>
                    </mxGeometry>
                </mxCell>
                <mxCell id="514" value="(1, 1)" style="text;strokeColor=none;align=center;fillColor=none;html=1;verticalAlign=middle;whiteSpace=wrap;rounded=0;fontSize=14;fontColor=#FFFFFF;" parent="1" vertex="1">
                    <mxGeometry x="252" y="336" width="40" height="30" as="geometry"/>
                </mxCell>
                <mxCell id="515" value="(0, n)" style="text;strokeColor=none;align=center;fillColor=none;html=1;verticalAlign=middle;whiteSpace=wrap;rounded=0;fontSize=14;fontColor=#FFFFFF;" parent="1" vertex="1">
                    <mxGeometry x="196" y="545" width="40" height="30" as="geometry"/>
                </mxCell>
                <mxCell id="516" value="(1, n)" style="text;strokeColor=none;align=center;fillColor=none;html=1;verticalAlign=middle;whiteSpace=wrap;rounded=0;fontSize=14;fontColor=#FFFFFF;" parent="1" vertex="1">
                    <mxGeometry x="304" y="294" width="40" height="30" as="geometry"/>
                </mxCell>
                <mxCell id="517" value="(1, 1)" style="text;strokeColor=none;align=center;fillColor=none;html=1;verticalAlign=middle;whiteSpace=wrap;rounded=0;fontSize=14;fontColor=#FFFFFF;" parent="1" vertex="1">
                    <mxGeometry x="366" y="287" width="40" height="30" as="geometry"/>
                </mxCell>
                <mxCell id="518" value="(1, 1)" style="text;strokeColor=none;align=center;fillColor=none;html=1;verticalAlign=middle;whiteSpace=wrap;rounded=0;fontSize=14;fontColor=#FFFFFF;" parent="1" vertex="1">
                    <mxGeometry x="476" y="331" width="40" height="30" as="geometry"/>
                </mxCell>
                <mxCell id="519" value="(0, 1)" style="text;strokeColor=none;align=center;fillColor=none;html=1;verticalAlign=middle;whiteSpace=wrap;rounded=0;fontSize=14;fontColor=#FFFFFF;" parent="1" vertex="1">
                    <mxGeometry x="420" y="548" width="40" height="30" as="geometry"/>
                </mxCell>
                <mxCell id="520" value="(1, 1)" style="text;strokeColor=none;align=center;fillColor=none;html=1;verticalAlign=middle;whiteSpace=wrap;rounded=0;fontSize=14;fontColor=#FFFFFF;" parent="1" vertex="1">
                    <mxGeometry x="420" y="696" width="40" height="30" as="geometry"/>
                </mxCell>
                <mxCell id="521" value="(1, n)" style="text;strokeColor=none;align=center;fillColor=none;html=1;verticalAlign=middle;whiteSpace=wrap;rounded=0;fontSize=14;fontColor=#FFFFFF;" parent="1" vertex="1">
                    <mxGeometry x="476" y="881" width="40" height="30" as="geometry"/>
                </mxCell>
                <mxCell id="522" value="(1, 1)" style="text;strokeColor=none;align=center;fillColor=none;html=1;verticalAlign=middle;whiteSpace=wrap;rounded=0;fontSize=14;fontColor=#FFFFFF;" parent="1" vertex="1">
                    <mxGeometry x="420" y="1018" width="40" height="30" as="geometry"/>
                </mxCell>
                <mxCell id="523" value="(1, n)" style="text;strokeColor=none;align=center;fillColor=none;html=1;verticalAlign=middle;whiteSpace=wrap;rounded=0;fontSize=14;fontColor=#FFFFFF;" parent="1" vertex="1">
                    <mxGeometry x="1550" y="531" width="40" height="30" as="geometry"/>
                </mxCell>
                <mxCell id="524" value="(1, 1)" style="text;strokeColor=none;align=center;fillColor=none;html=1;verticalAlign=middle;whiteSpace=wrap;rounded=0;fontSize=14;fontColor=#FFFFFF;" parent="1" vertex="1">
                    <mxGeometry x="530" y="256.75" width="40" height="30" as="geometry"/>
                </mxCell>
                <mxCell id="525" value="(0, n)" style="text;strokeColor=none;align=center;fillColor=none;html=1;verticalAlign=middle;whiteSpace=wrap;rounded=0;fontSize=14;fontColor=#FFFFFF;" parent="1" vertex="1">
                    <mxGeometry x="585" y="467" width="40" height="30" as="geometry"/>
                </mxCell>
                <mxCell id="529" value="(1, n)" style="text;strokeColor=none;align=center;fillColor=none;html=1;verticalAlign=middle;whiteSpace=wrap;rounded=0;fontSize=14;fontColor=#FFFFFF;" parent="1" vertex="1">
                    <mxGeometry x="859" y="617" width="40" height="30" as="geometry"/>
                </mxCell>
                <mxCell id="530" value="(0, n)" style="text;strokeColor=none;align=center;fillColor=none;html=1;verticalAlign=middle;whiteSpace=wrap;rounded=0;fontSize=14;fontColor=#FFFFFF;" parent="1" vertex="1">
                    <mxGeometry x="682" y="510" width="40" height="30" as="geometry"/>
                </mxCell>
                <mxCell id="532" value="&lt;u&gt;KundegruppeID&lt;/u&gt;" style="text;html=1;align=center;verticalAlign=middle;resizable=0;points=[];autosize=1;strokeColor=none;fillColor=none;fontColor=#FFFFFF;" parent="1" vertex="1">
                    <mxGeometry x="568" y="520" width="112" height="28" as="geometry"/>
                </mxCell>
                <mxCell id="535" value="(1, 1)" style="text;strokeColor=none;align=center;fillColor=none;html=1;verticalAlign=middle;whiteSpace=wrap;rounded=0;fontSize=14;fontColor=#FFFFFF;" parent="1" vertex="1">
                    <mxGeometry x="952" y="611" width="40" height="30" as="geometry"/>
                </mxCell>
                <mxCell id="536" value="(1, n)" style="text;strokeColor=none;align=center;fillColor=none;html=1;verticalAlign=middle;whiteSpace=wrap;rounded=0;fontSize=14;fontColor=#FFFFFF;" parent="1" vertex="1">
                    <mxGeometry x="1068" y="528" width="40" height="30" as="geometry"/>
                </mxCell>
                <mxCell id="537" value="(0, n)" style="text;strokeColor=none;align=center;fillColor=none;html=1;verticalAlign=middle;whiteSpace=wrap;rounded=0;fontSize=14;fontColor=#FFFFFF;" parent="1" vertex="1">
                    <mxGeometry x="980" y="686" width="40" height="30" as="geometry"/>
                </mxCell>
                <mxCell id="538" value="(0, n)" style="text;strokeColor=none;align=center;fillColor=none;html=1;verticalAlign=middle;whiteSpace=wrap;rounded=0;fontSize=14;fontColor=#FFFFFF;" parent="1" vertex="1">
                    <mxGeometry x="1094" y="685.25" width="40" height="30" as="geometry"/>
                </mxCell>
                <mxCell id="539" value="(0, n)" style="text;strokeColor=none;align=center;fillColor=none;html=1;verticalAlign=middle;whiteSpace=wrap;rounded=0;fontSize=14;fontColor=#FFFFFF;" parent="1" vertex="1">
                    <mxGeometry x="1149" y="716" width="40" height="30" as="geometry"/>
                </mxCell>
                <mxCell id="540" value="(0, n)" style="text;strokeColor=none;align=center;fillColor=none;html=1;verticalAlign=middle;whiteSpace=wrap;rounded=0;fontSize=14;fontColor=#FFFFFF;" parent="1" vertex="1">
                    <mxGeometry x="1196" y="826.25" width="40" height="30" as="geometry"/>
                </mxCell>
                <mxCell id="541" value="(1, 1)" style="text;strokeColor=none;align=center;fillColor=none;html=1;verticalAlign=middle;whiteSpace=wrap;rounded=0;fontSize=14;fontColor=#FFFFFF;" parent="1" vertex="1">
                    <mxGeometry x="1423" y="596.75" width="40" height="30" as="geometry"/>
                </mxCell>
                <mxCell id="542" value="(0, 1)" style="text;strokeColor=none;align=center;fillColor=none;html=1;verticalAlign=middle;whiteSpace=wrap;rounded=0;fontSize=14;fontColor=#FFFFFF;" parent="1" vertex="1">
                    <mxGeometry x="1258" y="871.25" width="40" height="30" as="geometry"/>
                </mxCell>
                <mxCell id="543" value="(1, n)" style="text;strokeColor=none;align=center;fillColor=none;html=1;verticalAlign=middle;whiteSpace=wrap;rounded=0;fontSize=14;fontColor=#FFFFFF;" parent="1" vertex="1">
                    <mxGeometry x="1383" y="940.13" width="40" height="30" as="geometry"/>
                </mxCell>
                <mxCell id="544" value="(0, n)" style="text;strokeColor=none;align=center;fillColor=none;html=1;verticalAlign=middle;whiteSpace=wrap;rounded=0;fontSize=14;fontColor=#FFFFFF;" parent="1" vertex="1">
                    <mxGeometry x="1258" y="940.13" width="40" height="30" as="geometry"/>
                </mxCell>
                <mxCell id="545" value="(0, n)" style="text;strokeColor=none;align=center;fillColor=none;html=1;verticalAlign=middle;whiteSpace=wrap;rounded=0;fontSize=14;fontColor=#FFFFFF;" parent="1" vertex="1">
                    <mxGeometry x="1490" y="1004.38" width="40" height="30" as="geometry"/>
                </mxCell>
                <mxCell id="546" value="(1, n)" style="text;strokeColor=none;align=center;fillColor=none;html=1;verticalAlign=middle;whiteSpace=wrap;rounded=0;fontSize=14;fontColor=#FFFFFF;" parent="1" vertex="1">
                    <mxGeometry x="1258" y="1202" width="40" height="30" as="geometry"/>
                </mxCell>
                <mxCell id="547" value="" style="endArrow=none;dashed=1;html=1;dashPattern=1 3;strokeWidth=2;strokeColor=#FFFFFF;fontColor=#FFFFFF;entryX=0.75;entryY=0;entryDx=0;entryDy=0;exitX=0.25;exitY=0;exitDx=0;exitDy=0;" parent="1" source="133" target="133" edge="1">
                    <mxGeometry width="50" height="50" relative="1" as="geometry">
                        <mxPoint x="1162" y="1184" as="sourcePoint"/>
                        <mxPoint x="1212" y="1134" as="targetPoint"/>
                    </mxGeometry>
                </mxCell>
                <mxCell id="548" value="(0, n)" style="text;strokeColor=none;align=center;fillColor=none;html=1;verticalAlign=middle;whiteSpace=wrap;rounded=0;fontSize=14;fontColor=#FFFFFF;" parent="1" vertex="1">
                    <mxGeometry x="1365" y="565.25" width="40" height="30" as="geometry"/>
                </mxCell>
                <mxCell id="549" value="(1, 1)" style="text;strokeColor=none;align=center;fillColor=none;html=1;verticalAlign=middle;whiteSpace=wrap;rounded=0;fontSize=14;fontColor=#FFFFFF;" parent="1" vertex="1">
                    <mxGeometry x="1229" y="563" width="40" height="30" as="geometry"/>
                </mxCell>
                <mxCell id="550" value="(1, 1)" style="text;strokeColor=none;align=center;fillColor=none;html=1;verticalAlign=middle;whiteSpace=wrap;rounded=0;fontSize=14;fontColor=#FFFFFF;" parent="1" vertex="1">
                    <mxGeometry x="1094" y="1202" width="40" height="30" as="geometry"/>
                </mxCell>
                <mxCell id="551" value="(1, n)" style="text;strokeColor=none;align=center;fillColor=none;html=1;verticalAlign=middle;whiteSpace=wrap;rounded=0;fontSize=14;fontColor=#FFFFFF;" parent="1" vertex="1">
                    <mxGeometry x="868" y="730.25" width="40" height="30" as="geometry"/>
                </mxCell>
                <mxCell id="552" value="(1, n)" style="text;strokeColor=none;align=center;fillColor=none;html=1;verticalAlign=middle;whiteSpace=wrap;rounded=0;fontSize=14;fontColor=#FFFFFF;" parent="1" vertex="1">
                    <mxGeometry x="813" y="655.25" width="40" height="30" as="geometry"/>
                </mxCell>
                <mxCell id="553" value="(1, 1)" style="text;strokeColor=none;align=center;fillColor=none;html=1;verticalAlign=middle;whiteSpace=wrap;rounded=0;fontSize=14;fontColor=#FFFFFF;" parent="1" vertex="1">
                    <mxGeometry x="732" y="885.63" width="40" height="30" as="geometry"/>
                </mxCell>
                <mxCell id="554" value="(1, 1)" style="text;strokeColor=none;align=center;fillColor=none;html=1;verticalAlign=middle;whiteSpace=wrap;rounded=0;fontSize=14;fontColor=#FFFFFF;" parent="1" vertex="1">
                    <mxGeometry x="629" y="950" width="40" height="30" as="geometry"/>
                </mxCell>
                <mxCell id="555" value="(0, n)" style="text;strokeColor=none;align=center;fillColor=none;html=1;verticalAlign=middle;whiteSpace=wrap;rounded=0;fontSize=14;fontColor=#FFFFFF;" parent="1" vertex="1">
                    <mxGeometry x="530" y="955" width="40" height="30" as="geometry"/>
                </mxCell>
                <mxCell id="556" value="" style="edgeStyle=segmentEdgeStyle;endArrow=none;html=1;curved=0;rounded=0;endSize=8;startSize=8;endFill=0;exitX=1;exitY=0.25;exitDx=0;exitDy=0;entryX=0;entryY=0;entryDx=0;entryDy=0;" parent="1" target="507" edge="1">
                    <mxGeometry width="50" height="50" relative="1" as="geometry">
                        <mxPoint x="1229" y="565" as="sourcePoint"/>
                        <mxPoint x="1405" y="560.75" as="targetPoint"/>
                        <Array as="points"/>
                    </mxGeometry>
                </mxCell>
                <mxCell id="507" value="" style="rhombus;whiteSpace=wrap;html=1;fontSize=14;strokeColor=default;" parent="1" vertex="1">
                    <mxGeometry x="1298" y="548" width="40" height="40" as="geometry"/>
                </mxCell>
                <mxCell id="559" value="" style="rounded=0;whiteSpace=wrap;html=1;fontSize=14;strokeColor=default;strokeWidth=1;fontColor=#FFFFFF;" parent="1" vertex="1">
                    <mxGeometry x="1109" y="528" width="120" height="75" as="geometry"/>
                </mxCell>
                <mxCell id="560" value="" style="rounded=0;whiteSpace=wrap;html=1;fontSize=14;strokeColor=default;strokeWidth=1;fontColor=#FFFFFF;" parent="1" vertex="1">
                    <mxGeometry x="1114" y="533" width="110" height="65" as="geometry"/>
                </mxCell>
                <mxCell id="561" value="&lt;span style=&quot;font-size: 14px;&quot;&gt;&lt;b&gt;Sesong&lt;/b&gt;&lt;/span&gt;" style="text;strokeColor=none;align=center;fillColor=none;html=1;verticalAlign=middle;whiteSpace=wrap;rounded=0;strokeWidth=1;fontColor=#FFFFFF;" parent="1" vertex="1">
                    <mxGeometry x="1114" y="533" width="110" height="25" as="geometry"/>
                </mxCell>
                <mxCell id="562" value="&lt;span style=&quot;font-size: 14px;&quot;&gt;Startdato&lt;/span&gt;" style="text;strokeColor=none;align=center;fillColor=none;html=1;verticalAlign=middle;whiteSpace=wrap;rounded=0;strokeWidth=1;fontColor=#FFFFFF;" parent="1" vertex="1">
                    <mxGeometry x="1114" y="558" width="110" height="20" as="geometry"/>
                </mxCell>
                <mxCell id="563" value="&lt;span style=&quot;font-size: 14px;&quot;&gt;Sluttdato&lt;/span&gt;" style="text;strokeColor=none;align=center;fillColor=none;html=1;verticalAlign=middle;whiteSpace=wrap;rounded=0;strokeWidth=1;fontColor=#FFFFFF;" parent="1" vertex="1">
                    <mxGeometry x="1114" y="578" width="110" height="20" as="geometry"/>
                </mxCell>
                <mxCell id="564" style="edgeStyle=none;html=1;exitX=0;exitY=0;exitDx=0;exitDy=0;entryX=1;entryY=0;entryDx=0;entryDy=0;endArrow=none;endFill=0;strokeColor=#FFFFFF;fontColor=#FFFFFF;" parent="1" source="562" target="562" edge="1">
                    <mxGeometry relative="1" as="geometry"/>
                </mxCell>
                <mxCell id="565" value="" style="endArrow=none;dashed=1;html=1;dashPattern=1 3;strokeWidth=2;strokeColor=#FFFFFF;fontColor=#FFFFFF;entryX=0.75;entryY=0;entryDx=0;entryDy=0;exitX=0.25;exitY=0;exitDx=0;exitDy=0;" parent="1" source="563" target="563" edge="1">
                    <mxGeometry width="50" height="50" relative="1" as="geometry">
                        <mxPoint x="1149" y="603" as="sourcePoint"/>
                        <mxPoint x="1199" y="553" as="targetPoint"/>
                    </mxGeometry>
                </mxCell>
                <mxCell id="569" value="" style="rhombus;whiteSpace=wrap;html=1;fontSize=14;strokeColor=default;fontColor=#FFFFFF;" parent="1" vertex="1">
                    <mxGeometry x="1303" y="553" width="30" height="30" as="geometry"/>
                </mxCell>
                <mxCell id="570" value="Tidspunkt" style="text;html=1;align=center;verticalAlign=middle;resizable=0;points=[];autosize=1;strokeColor=none;fillColor=none;" vertex="1" parent="1">
                    <mxGeometry x="432" y="295.5" width="70" height="27" as="geometry"/>
                </mxCell>
            </root>
        </mxGraphModel>
    </diagram>
</mxfile>